<svg xmlns="http://www.w3.org/2000/svg" xmlns:xlink="http://www.w3.org/1999/xlink" width="100%" height="100%" viewBox="0 0  940 490" preserveAspectRatio="xMinYMin meet" ><defs id="svgEditorDefs"><pattern height="10" id="hatch-black-dash-120" patternTransform="rotate(120) scale(0.4)" patternUnits="userSpaceOnUse" viewBox="0 0 24 10" width="24" x="0" y="0"><line style="stroke:black;stroke-width:1px;stroke-dasharray:4,4;" x1="0" x2="24" y1="5" y2="5"/></pattern><pattern height="10" id="hatch-black-120" patternTransform="rotate(120) scale(0.4)" patternUnits="userSpaceOnUse" viewBox="0 0 10 10" width="10" x="0" y="0"><line style="stroke:black;stroke-width:1px;" x1="0" x2="10" y1="5" y2="5"/></pattern></defs><rect id="svgEditorBackground" x="0" y="0" width="940" height="490" style="fill: none; stroke: none;"/><path d="M1.032258-0.62529l-4,6.928h8Z" style="fill:rosybrown; stroke:black; vector-effect:non-scaling-stroke;stroke-width:1px;" id="e1_shape" transform="matrix(11.6003 0 0 11.6003 49.3949 51.1602)"/><path d="M9.032273-0.109156l-4,6.928h8Z" style="fill:rosybrown; stroke:black; vector-effect:non-scaling-stroke;stroke-width:1px;" id="e3_shape" transform="matrix(11.6003 0 0 11.6003 49.3949 51.1602)"/><path d="M25.11832,0.148909l-4,6.928h8Z" style="fill:rosybrown; stroke:black; vector-effect:non-scaling-stroke;stroke-width:1px;" id="e2_shape" transform="matrix(11.6003 0 0 11.6003 49.3949 51.1602)"/><path d="M17.032285-0.109156l-4,6.928h8Z" style="fill:rosybrown; stroke:black; vector-effect:non-scaling-stroke;stroke-width:1px;" id="e4_shape" transform="matrix(11.6003 0 0 11.6003 49.3949 51.1602)"/><path d="M33.290376,0.406974l-4,6.928h8Z" style="fill:rosybrown; stroke:black; vector-effect:non-scaling-stroke;stroke-width:1px;" id="e5_shape" transform="matrix(11.6003 0 0 11.6003 49.3949 51.1602)"/><text dy="-0.5em" style="fill:black;font-family:Arial;font-size:20px;" id="e8_text"/><rect x="2.993640" y="254.459000" style="fill:black;stroke:black;stroke-width:1px;fill-opacity:0.5;" id="e9_rectangle" width="421.105000" height="67.855900" transform="matrix(2.11312 0 0 1 7.77528 0)"/></svg>